<?xml version="1.0" encoding="utf-8"?>
<!-- Generator: Adobe Illustrator 27.2.0, SVG Export Plug-In . SVG Version: 6.00 Build 0)  -->
<svg version="1.1" id="Layer_1" xmlns="http://www.w3.org/2000/svg" xmlns:xlink="http://www.w3.org/1999/xlink" x="0px" y="0px"
	 viewBox="0 0 141 49.3" style="enable-background:new 0 0 141 49.3;" xml:space="preserve">
<style type="text/css">
	.st0{fill:#807260;}
	.st1{fill:#5C5245;}
</style>
<path class="st0" d="M16.1,40.9V27.1L14.4,27v-0.2h5.2V27l-1.8,0.2V41h4.6c0.3,0,0.6,0,0.7-0.1c0.2-0.1,0.3-0.3,0.4-0.6l1.4-3.6
	l0.3,0l-0.5,4.6H14.4v-0.2L16.1,40.9z M30.8,32.2c0.8,0,1.5,0.2,2.2,0.6c0.6,0.4,1.1,0.9,1.5,1.7c0.3,0.7,0.5,1.5,0.5,2.4
	s-0.2,1.7-0.5,2.4c-0.3,0.7-0.8,1.2-1.5,1.6c-0.6,0.4-1.4,0.6-2.2,0.6s-1.5-0.2-2.2-0.6c-0.6-0.4-1.1-0.9-1.5-1.6
	c-0.4-0.7-0.5-1.5-0.5-2.4s0.2-1.7,0.5-2.4c0.4-0.7,0.8-1.3,1.5-1.7C29.2,32.4,30,32.2,30.8,32.2z M28.2,36.8c0,1.4,0.2,2.5,0.7,3.3
	s1.1,1.2,1.9,1.2s1.4-0.4,1.9-1.2c0.5-0.8,0.7-1.9,0.7-3.3c0-1.4-0.2-2.5-0.7-3.3c-0.5-0.8-1.1-1.2-1.9-1.2s-1.4,0.4-1.9,1.2
	C28.4,34.3,28.2,35.4,28.2,36.8z M42.9,32c-0.3,0-0.5,0.3-0.6,0.9c0.4,0.3,0.6,0.6,0.8,1c0.2,0.4,0.3,0.8,0.3,1.3
	c0,0.8-0.2,1.4-0.7,2c-0.4,0.5-1,0.9-1.8,1c-0.2,0-0.3,0.1-0.5,0.1c-0.7,0.1-1.3,0.3-1.7,0.5c-0.4,0.2-0.6,0.5-0.6,0.8
	c0,0.2,0.1,0.4,0.2,0.5c0.1,0.1,0.4,0.3,0.7,0.4c0.3,0.1,0.9,0.2,1.6,0.4c1.2,0.2,2,0.5,2.5,0.9c0.5,0.4,0.8,1,0.8,1.7
	c0,0.6-0.2,1.1-0.5,1.5c-0.4,0.5-0.9,0.8-1.5,1.1c-0.6,0.3-1.4,0.4-2.2,0.4c-1.2,0-2.1-0.2-2.7-0.6c-0.6-0.4-0.9-1-0.9-1.7
	c0-0.5,0.2-1,0.6-1.4c0.4-0.4,1-0.8,1.7-1c-0.5-0.2-0.8-0.4-1.1-0.7c-0.2-0.3-0.3-0.5-0.3-0.9c0-0.4,0.2-0.7,0.7-1.1
	c0.5-0.3,1.2-0.6,2-0.8c-0.9-0.1-1.6-0.4-2.1-1c-0.5-0.6-0.8-1.3-0.8-2.1c0-0.9,0.3-1.6,0.9-2.2c0.6-0.6,1.4-0.9,2.4-0.9
	c0.8,0,1.5,0.2,2,0.6c0.4-1.2,0.9-1.8,1.6-1.8c0.3,0,0.5,0.1,0.6,0.2c0.2,0.1,0.2,0.3,0.2,0.6c0,0.2-0.1,0.4-0.2,0.5
	s-0.3,0.2-0.5,0.2c-0.2,0-0.3-0.1-0.5-0.2c0,0-0.1,0-0.2-0.1C43,32,43,32,42.9,32z M40,38.1c0.5,0,1-0.3,1.3-0.8
	c0.3-0.5,0.5-1.2,0.5-2.1c0-0.8-0.2-1.5-0.5-2.1c-0.3-0.5-0.7-0.8-1.3-0.8c-0.5,0-1,0.3-1.3,0.8c-0.3,0.5-0.5,1.2-0.5,2.1
	c0,0.8,0.2,1.5,0.5,2.1C39.1,37.8,39.5,38.1,40,38.1z M42.6,44.1c0-0.5-0.2-0.9-0.6-1.2c-0.4-0.3-1.1-0.5-2.1-0.7
	c-0.6-0.1-1.1-0.2-1.4-0.4c-1,0.3-1.5,1.1-1.5,2.2c0,0.7,0.2,1.3,0.7,1.7c0.5,0.4,1.2,0.6,2.1,0.6s1.6-0.2,2.1-0.6
	C42.4,45.3,42.6,44.8,42.6,44.1z M49.2,32.2c0.8,0,1.5,0.2,2.2,0.6c0.6,0.4,1.1,0.9,1.5,1.7c0.3,0.7,0.5,1.5,0.5,2.4
	s-0.2,1.7-0.5,2.4c-0.3,0.7-0.8,1.2-1.5,1.6c-0.6,0.4-1.4,0.6-2.2,0.6s-1.5-0.2-2.2-0.6c-0.6-0.4-1.1-0.9-1.5-1.6
	c-0.4-0.7-0.5-1.5-0.5-2.4s0.2-1.7,0.5-2.4c0.3-0.7,0.8-1.3,1.5-1.7C47.7,32.4,48.4,32.2,49.2,32.2z M46.6,36.8
	c0,1.4,0.2,2.5,0.7,3.3c0.5,0.8,1.1,1.2,1.9,1.2s1.4-0.4,1.9-1.2c0.5-0.8,0.7-1.9,0.7-3.3c0-1.4-0.2-2.5-0.7-3.3
	c-0.5-0.8-1.1-1.2-1.9-1.2s-1.4,0.4-1.9,1.2C46.9,34.3,46.6,35.4,46.6,36.8z M54.7,32.6l2.3-2.2l0.1,0v2h2.4l-0.1,0.3h-2.3v6.4
	c0,0.5,0.1,0.9,0.2,1.1c0.2,0.3,0.5,0.5,0.9,0.5c0.2,0,0.4-0.1,0.7-0.2c0.2-0.1,0.4-0.3,0.7-0.5l0.1,0.1c-0.2,0.4-0.5,0.8-0.9,1
	c-0.4,0.3-0.8,0.4-1.2,0.4c-0.4,0-0.8-0.1-1.2-0.4c-0.2-0.2-0.4-0.4-0.5-0.7c-0.1-0.3-0.1-0.6-0.1-1v-6.7h-1L54.7,32.6z M67.8,38.9
	L67.8,38.9v0.3c-0.3,0.7-0.7,1.3-1.3,1.7c-0.5,0.4-1.2,0.6-2,0.6c-0.8,0-1.4-0.2-2-0.6c-0.6-0.4-1-0.9-1.4-1.6
	c-0.3-0.7-0.5-1.5-0.5-2.4s0.2-1.7,0.5-2.4c0.3-0.7,0.8-1.3,1.5-1.7c0.6-0.4,1.4-0.6,2.2-0.6c1,0,1.7,0.3,2.2,0.9
	c0.5,0.6,0.8,1.4,0.8,2.5l-0.1,0.1h-5.7c0,0.4,0,0.7,0,0.9c0,1.3,0.3,2.2,0.8,2.9c0.5,0.7,1.2,1,2.2,1c0.5,0,0.9-0.1,1.4-0.3
	c0.4-0.2,0.8-0.6,1.2-1L67.8,38.9z M64.7,32.4c-0.7,0-1.2,0.3-1.6,0.8s-0.7,1.3-0.8,2.2l4.1-0.1c0-0.2,0.1-0.4,0.1-0.8
	c0-0.8-0.1-1.3-0.4-1.6C65.6,32.5,65.2,32.4,64.7,32.4z M74,32.2c0.3,0,0.5,0.1,0.7,0.3c0.2,0.2,0.3,0.4,0.3,0.7
	c0,0.2-0.1,0.4-0.2,0.6c-0.2,0.2-0.3,0.2-0.6,0.2c-0.1,0-0.3,0-0.4-0.1c-0.1-0.1-0.2-0.2-0.3-0.3c-0.1-0.1-0.2-0.2-0.3-0.3
	c-0.1-0.1-0.2-0.1-0.3-0.1c-0.2,0-0.5,0.1-0.7,0.4c-0.2,0.3-0.4,0.6-0.5,0.9v6.4l1.7,0.2v0.2h-4.3v-0.2l1.3-0.2v-7.3l-1.2-0.5V33
	l2.4-0.8h0.2V34C72.6,32.8,73.3,32.2,74,32.2z M78,41.4c-0.5,0-1-0.2-1.3-0.5c-0.3-0.4-0.5-0.9-0.5-1.4c0-0.7,0.3-1.3,0.9-1.7
	c0.6-0.4,1.7-0.8,3.3-1.1v-1.9c0-0.8-0.1-1.4-0.3-1.7c-0.2-0.3-0.5-0.5-0.9-0.5c-0.4,0-0.8,0.1-1.1,0.4c-0.3,0.2-0.4,0.5-0.4,0.9
	l0,0.6c0,0.3-0.1,0.6-0.2,0.8c-0.1,0.2-0.3,0.3-0.5,0.3c-0.2,0-0.4-0.1-0.5-0.2c-0.1-0.1-0.2-0.3-0.2-0.5c0-0.3,0.2-0.7,0.5-1.1
	c0.3-0.4,0.8-0.7,1.3-1c0.6-0.4,1.3-0.5,2-0.5c0.4,0,0.7,0.1,1,0.2c0.3,0.2,0.5,0.4,0.6,0.7c0.1,0.2,0.1,0.4,0.1,0.7
	c0,0.3,0,0.8,0,1.5v4c0,0.5,0,0.9,0.1,1c0.1,0.2,0.3,0.3,0.5,0.3c0.4,0,0.7-0.1,0.8-0.4l0.1,0c-0.2,0.4-0.4,0.6-0.7,0.8
	c-0.3,0.2-0.6,0.3-0.9,0.3c-0.4,0-0.7-0.1-0.9-0.3c-0.2-0.2-0.4-0.5-0.4-0.9l-0.1,0c-0.3,0.4-0.7,0.7-1.1,1
	C78.9,41.3,78.4,41.4,78,41.4z M78.9,40.6c0.3,0,0.6-0.1,0.8-0.2c0.3-0.1,0.5-0.3,0.7-0.6v-3c-0.7,0.2-1.3,0.4-1.7,0.5
	c-0.4,0.2-0.7,0.4-0.8,0.7c-0.2,0.3-0.3,0.6-0.3,0.9c0,0.5,0.1,0.9,0.4,1.2C78.2,40.5,78.5,40.6,78.9,40.6z M88.2,41.5
	c-0.6,0-1.1-0.1-1.7-0.4v4.7l1.9,0.2v0.1h-4.5V46l1.3-0.2V33.6l-1.2-0.5V33l2.4-0.8h0.2v1.5h0.1c0.3-0.5,0.7-0.8,1.2-1.1
	c0.5-0.3,1-0.4,1.6-0.4c0.6,0,1.2,0.2,1.7,0.6c0.5,0.4,0.9,0.9,1.2,1.6c0.3,0.7,0.4,1.4,0.4,2.3c0,1-0.2,1.8-0.5,2.5
	s-0.9,1.3-1.5,1.7C89.8,41.3,89,41.5,88.2,41.5z M87,40.8c0.4,0.3,0.8,0.4,1.3,0.4s1-0.2,1.3-0.6c0.4-0.4,0.7-0.9,0.9-1.6
	s0.3-1.4,0.3-2.3c0-1.2-0.2-2.2-0.7-3s-1.1-1.1-1.8-1.1c-0.4,0-0.8,0.1-1.2,0.3c-0.3,0.2-0.6,0.5-0.8,0.9v5.7
	C86.5,40.2,86.7,40.5,87,40.8z M101.3,38.9L101.3,38.9v0.3c-0.3,0.7-0.7,1.3-1.3,1.7c-0.5,0.4-1.2,0.6-2,0.6c-0.8,0-1.4-0.2-2-0.6
	c-0.6-0.4-1-0.9-1.4-1.6c-0.3-0.7-0.5-1.5-0.5-2.4s0.2-1.7,0.5-2.4c0.4-0.7,0.8-1.3,1.5-1.7c0.6-0.4,1.4-0.6,2.2-0.6
	c1,0,1.7,0.3,2.2,0.9c0.5,0.6,0.8,1.4,0.8,2.5l-0.1,0.1h-5.7c0,0.4,0,0.7,0,0.9c0,1.3,0.3,2.2,0.8,2.9c0.5,0.7,1.2,1,2.2,1
	c0.5,0,0.9-0.1,1.4-0.3c0.4-0.2,0.8-0.6,1.2-1L101.3,38.9z M98.2,32.4c-0.7,0-1.2,0.3-1.6,0.8s-0.7,1.3-0.8,2.2l4.1-0.1
	c0-0.2,0.1-0.4,0.1-0.8c0-0.8-0.1-1.3-0.4-1.6C99.1,32.5,98.7,32.4,98.2,32.4z M111.1,40.2v0.1l-2.3,1h-0.1V40l-0.1,0
	c-0.8,1-1.7,1.6-2.7,1.6c-0.4,0-0.8-0.1-1.2-0.3c-0.3-0.2-0.6-0.4-0.7-0.8c-0.1-0.2-0.2-0.4-0.2-0.7c0-0.3,0-0.9,0-1.7v-5.4
	l-1.3-0.2v-0.2h2.6v5.7c0,0.6,0,1,0,1.2c0,0.3,0.1,0.5,0.2,0.7c0.1,0.2,0.3,0.4,0.5,0.5c0.2,0.1,0.5,0.2,0.8,0.2
	c0.4,0,0.7-0.1,1-0.3c0.3-0.2,0.6-0.4,0.9-0.8v-7l-1.3-0.2v-0.2h2.6V40L111.1,40.2z M112.1,32.6l2.3-2.2l0.1,0v2h2.4l-0.1,0.3h-2.3
	v6.4c0,0.5,0.1,0.9,0.2,1.1c0.2,0.3,0.5,0.5,0.9,0.5c0.2,0,0.4-0.1,0.7-0.2c0.2-0.1,0.4-0.3,0.7-0.5l0.1,0.1c-0.2,0.4-0.5,0.8-0.9,1
	c-0.4,0.3-0.8,0.4-1.2,0.4c-0.4,0-0.8-0.1-1.2-0.4c-0.2-0.2-0.4-0.4-0.5-0.7c-0.1-0.3-0.1-0.6-0.1-1v-6.7h-1L112.1,32.6z
	 M119.9,41.4c-0.5,0-1-0.2-1.3-0.5c-0.3-0.4-0.5-0.9-0.5-1.4c0-0.7,0.3-1.3,0.9-1.7c0.6-0.4,1.7-0.8,3.3-1.1v-1.9
	c0-0.8-0.1-1.4-0.3-1.7c-0.2-0.3-0.5-0.5-0.9-0.5c-0.4,0-0.8,0.1-1,0.4c-0.3,0.2-0.4,0.5-0.4,0.9l0,0.6c0,0.3-0.1,0.6-0.2,0.8
	c-0.1,0.2-0.3,0.3-0.5,0.3c-0.2,0-0.4-0.1-0.5-0.2c-0.1-0.1-0.2-0.3-0.2-0.5c0-0.3,0.2-0.7,0.5-1.1c0.3-0.4,0.8-0.7,1.3-1
	c0.6-0.4,1.3-0.5,2-0.5c0.4,0,0.7,0.1,1,0.2c0.3,0.2,0.5,0.4,0.6,0.7c0.1,0.2,0.1,0.4,0.1,0.7c0,0.3,0,0.8,0,1.5v4
	c0,0.5,0,0.9,0.1,1c0.1,0.2,0.3,0.3,0.5,0.3c0.4,0,0.7-0.1,0.8-0.4l0.1,0c-0.2,0.4-0.4,0.6-0.7,0.8c-0.3,0.2-0.6,0.3-0.9,0.3
	c-0.4,0-0.7-0.1-0.9-0.3c-0.2-0.2-0.4-0.5-0.4-0.9l-0.1,0c-0.3,0.4-0.7,0.7-1.1,1C120.8,41.3,120.3,41.4,119.9,41.4z M120.8,40.6
	c0.3,0,0.6-0.1,0.8-0.2c0.3-0.1,0.5-0.3,0.7-0.6v-3c-0.7,0.2-1.3,0.4-1.7,0.5c-0.4,0.2-0.7,0.4-0.8,0.7c-0.2,0.3-0.3,0.6-0.3,0.9
	c0,0.5,0.1,0.9,0.4,1.2C120.1,40.5,120.4,40.6,120.8,40.6z"/>
<path class="st1" d="M13.9,12.7c1.7,0.2,3,0.8,3.9,1.7s1.3,2,1.3,3.4c0,1.5-0.5,2.9-1.6,3.9c-1.1,1-2.7,1.6-4.9,1.6H4V23l2.4-0.2
	V3.7L4,3.4V3.2h7.2c2.3,0,4,0.4,5.2,1.2s1.8,2,1.8,3.5c0,1.2-0.4,2.3-1.1,3.1c-0.8,0.8-1.8,1.3-3.2,1.5V12.7z M8.6,3.6v8.9H12
	c1.3,0,2.2-0.4,2.8-1.1c0.6-0.8,0.9-1.9,0.9-3.4c0-2.9-1.5-4.4-4.5-4.4H8.6z M11.9,22.9c3,0,4.5-1.7,4.5-5c0-1.8-0.4-3-1.1-3.8
	c-0.8-0.8-1.9-1.2-3.4-1.2H8.6v10.1H11.9z M27.5,10.6c0.4,0,0.7,0.1,1,0.4c0.3,0.3,0.4,0.6,0.4,0.9c0,0.3-0.1,0.6-0.3,0.8
	c-0.2,0.2-0.5,0.3-0.8,0.3c-0.2,0-0.4,0-0.5-0.1c-0.1-0.1-0.2-0.2-0.4-0.4c-0.1-0.2-0.3-0.3-0.4-0.3c-0.1-0.1-0.2-0.1-0.4-0.1
	c-0.3,0-0.6,0.2-1,0.6c-0.3,0.4-0.5,0.8-0.7,1.3v8.8l2.3,0.2v0.2h-6V23l1.8-0.2V12.6L21,12v-0.2l3.3-1.1h0.2v2.6
	C25.5,11.5,26.6,10.6,27.5,10.6z M31.6,5.5c-0.3,0.3-0.4,0.6-0.4,1s0.1,0.7,0.4,1c0.3,0.3,0.6,0.4,1,0.4c0.4,0,0.7-0.1,1-0.4
	c0.3-0.3,0.4-0.6,0.4-1s-0.1-0.7-0.4-1c-0.3-0.3-0.6-0.4-1-0.4C32.2,5.1,31.9,5.2,31.6,5.5z M33.7,10.6v12.1l1.8,0.2v0.2H30V23
	l1.8-0.2V12.6L30.1,12v-0.2l3.4-1.1H33.7z M37.3,15.2l0.3-4.2h8.5v0.6l-7.2,11.2h5.4l0.2-0.5c0.4-1.1,0.8-2.3,1.1-3.5l0.4,0
	l-0.2,4.5h-8.9v-0.6L44,11.3h-5.1l-0.2,0.5c-0.5,1.3-0.8,2.4-1,3.4L37.3,15.2z M49.5,5.5c-0.3,0.3-0.4,0.6-0.4,1s0.1,0.7,0.4,1
	c0.3,0.3,0.6,0.4,1,0.4c0.4,0,0.7-0.1,1-0.4c0.3-0.3,0.4-0.6,0.4-1s-0.1-0.7-0.4-1c-0.3-0.3-0.6-0.4-1-0.4
	C50.1,5.1,49.7,5.2,49.5,5.5z M51.6,10.6v12.1l1.8,0.2v0.2h-5.4V23l1.8-0.2V12.6L48,12v-0.2l3.4-1.1H51.6z M57.6,23.4
	c-0.7,0-1.3-0.3-1.8-0.8c-0.5-0.5-0.7-1.2-0.7-2c0-1,0.4-1.7,1.3-2.3c0.9-0.6,2.4-1.1,4.5-1.5v-2.6c0-1.1-0.1-1.9-0.4-2.3
	c-0.3-0.4-0.7-0.7-1.3-0.7c-0.6,0-1.1,0.2-1.4,0.5c-0.4,0.3-0.6,0.7-0.6,1.3l0,0.8c0,0.5-0.1,0.9-0.3,1.2c-0.2,0.3-0.4,0.4-0.8,0.4
	c-0.3,0-0.5-0.1-0.7-0.3c-0.2-0.2-0.3-0.4-0.3-0.8c0-0.5,0.2-1,0.7-1.5c0.5-0.6,1.1-1,1.8-1.4c0.9-0.5,1.8-0.7,2.7-0.7
	c0.5,0,1,0.1,1.4,0.3c0.4,0.2,0.7,0.5,0.8,0.9c0.1,0.3,0.2,0.6,0.2,0.9c0,0.4,0.1,1.1,0.1,2.1v5.5c0,0.7,0.1,1.2,0.2,1.4
	c0.1,0.3,0.4,0.4,0.7,0.4c0.5,0,0.9-0.2,1.2-0.6l0.1,0.1c-0.2,0.5-0.5,0.9-0.9,1.1c-0.4,0.3-0.8,0.4-1.2,0.4c-0.5,0-0.9-0.1-1.2-0.4
	c-0.3-0.3-0.5-0.7-0.6-1.2l-0.1,0c-0.4,0.6-1,1-1.5,1.3C58.8,23.3,58.2,23.4,57.6,23.4z M58.8,22.3c0.4,0,0.8-0.1,1.1-0.3
	c0.4-0.2,0.7-0.5,0.9-0.8v-4.1c-1,0.3-1.8,0.5-2.3,0.8c-0.5,0.3-0.9,0.6-1.2,0.9c-0.2,0.3-0.3,0.8-0.3,1.3c0,0.7,0.2,1.2,0.5,1.6
	C57.8,22.1,58.3,22.3,58.8,22.3z M83.1,22.9c-0.9,0.5-2,0.8-3.2,0.8c-0.9,0-1.8-0.1-2.6-0.4c-0.9-0.3-1.6-0.7-2.2-1.2l-0.6,1.6H74
	l-0.4-6.9l0.3-0.1c0.3,1.3,0.6,2.3,0.9,3.1c0.3,0.7,0.7,1.4,1.2,1.9c1,1.1,2.3,1.7,3.9,1.7c1.4,0,2.5-0.4,3.2-1.1
	c0.8-0.7,1.2-1.7,1.2-3c0-0.9-0.2-1.6-0.6-2.2c-0.4-0.6-1-1.1-1.7-1.5c-0.7-0.4-1.7-0.9-3-1.5c-1.1-0.5-2-0.9-2.7-1.4
	c-0.7-0.5-1.3-1.1-1.8-1.8c-0.5-0.7-0.7-1.6-0.7-2.7c0-1.1,0.3-2,0.8-2.8c0.5-0.9,1.2-1.5,2.1-2c0.9-0.5,1.9-0.7,3.1-0.7
	c0.8,0,1.5,0.1,2.2,0.4c0.7,0.3,1.4,0.7,2.2,1.3l0.7-1.4h0.4l0.3,6.3l-0.3,0.1c-0.3-1.3-0.7-2.4-1.2-3.4c-1-2-2.4-3-4.4-3
	c-1.2,0-2.2,0.3-2.9,1c-0.7,0.7-1.1,1.6-1.1,2.8c0,0.9,0.2,1.6,0.6,2.1c0.4,0.6,1,1.1,1.7,1.5c0.7,0.4,1.7,0.9,3,1.5
	c1.2,0.5,2.1,1,2.8,1.5c0.7,0.5,1.3,1,1.7,1.7c0.4,0.7,0.7,1.5,0.7,2.5c0,1.1-0.3,2.1-0.8,3C84.8,21.7,84,22.4,83.1,22.9z M89.7,5.5
	c-0.3,0.3-0.4,0.6-0.4,1s0.1,0.7,0.4,1c0.3,0.3,0.6,0.4,1,0.4s0.7-0.1,1-0.4c0.3-0.3,0.4-0.6,0.4-1s-0.1-0.7-0.4-1
	c-0.3-0.3-0.6-0.4-1-0.4S90,5.2,89.7,5.5z M91.8,10.6v12.1l1.8,0.2v0.2h-5.4V23l1.8-0.2V12.6L88.2,12v-0.2l3.4-1.1H91.8z
	 M103.9,10.4c-0.4,0-0.7,0.4-0.8,1.2c0.5,0.4,0.9,0.9,1.2,1.4c0.3,0.5,0.4,1.2,0.4,1.8c0,1-0.3,1.9-1,2.7c-0.6,0.7-1.5,1.2-2.5,1.4
	c-0.2,0.1-0.5,0.1-0.7,0.1c-1,0.2-1.8,0.4-2.3,0.7c-0.5,0.3-0.8,0.7-0.8,1c0,0.3,0.1,0.5,0.3,0.7c0.2,0.2,0.5,0.3,1,0.5
	c0.5,0.2,1.2,0.3,2.2,0.5c1.6,0.3,2.8,0.7,3.5,1.3c0.7,0.6,1,1.4,1,2.4c0,0.8-0.3,1.5-0.8,2.1c-0.5,0.6-1.2,1.1-2.1,1.5
	c-0.9,0.4-1.9,0.6-3,0.6c-1.6,0-2.9-0.3-3.7-0.9c-0.9-0.6-1.3-1.4-1.3-2.4c0-0.7,0.3-1.4,0.8-2c0.6-0.6,1.4-1.1,2.3-1.4
	c-0.7-0.3-1.2-0.6-1.5-0.9c-0.3-0.3-0.4-0.8-0.4-1.2c0-0.5,0.3-1,1-1.5c0.7-0.4,1.6-0.8,2.8-1.1c-1.2-0.1-2.2-0.6-2.9-1.3
	c-0.7-0.8-1.1-1.7-1.1-2.9c0-1.2,0.4-2.2,1.3-3c0.9-0.8,2-1.2,3.3-1.2c1.1,0,2,0.3,2.8,0.8c0.5-1.7,1.2-2.5,2.2-2.5
	c0.4,0,0.7,0.1,0.9,0.3c0.2,0.2,0.3,0.5,0.3,0.8c0,0.3-0.1,0.5-0.3,0.7c-0.2,0.2-0.4,0.3-0.7,0.3c-0.2,0-0.5-0.1-0.7-0.3
	c0,0-0.1-0.1-0.3-0.1C104.2,10.5,104,10.4,103.9,10.4z M100,18.8c0.7,0,1.3-0.4,1.8-1.1c0.5-0.7,0.7-1.7,0.7-2.8s-0.2-2.1-0.7-2.8
	c-0.4-0.7-1-1.1-1.8-1.1c-0.7,0-1.3,0.4-1.8,1.1c-0.4,0.7-0.7,1.7-0.7,2.8s0.2,2.1,0.7,2.8C98.7,18.4,99.3,18.8,100,18.8z
	 M103.6,27.1c0-0.7-0.3-1.3-0.8-1.7c-0.5-0.4-1.5-0.7-3-1c-0.8-0.1-1.5-0.3-2-0.5c-1.4,0.5-2.1,1.5-2.1,3c0,1,0.3,1.8,1,2.4
	c0.7,0.6,1.6,0.8,2.8,0.8c1.2,0,2.2-0.3,2.9-0.8C103.2,28.7,103.6,28,103.6,27.1z M110,2.3v20.4l1.8,0.2v0.2h-5.4V23l1.8-0.2V4.3
	l-1.7-0.6V3.4l3.4-1.1H110z M123.2,19.9l0.1,0.1l-0.1,0.3c-0.4,1-1,1.8-1.7,2.4c-0.8,0.6-1.7,0.8-2.7,0.8c-1,0-2-0.3-2.8-0.8
	c-0.8-0.5-1.4-1.3-1.9-2.3c-0.4-1-0.7-2.1-0.7-3.3c0-1.3,0.2-2.4,0.7-3.4c0.5-1,1.2-1.7,2.1-2.3c0.9-0.5,1.9-0.8,3-0.8
	c1.4,0,2.4,0.4,3.1,1.2c0.7,0.8,1.1,2,1.1,3.5l-0.2,0.1h-7.8c0,0.5-0.1,0.9-0.1,1.2c0,1.8,0.4,3.1,1.1,4c0.7,0.9,1.7,1.4,3,1.4
	c0.7,0,1.3-0.1,1.9-0.4c0.6-0.3,1.2-0.8,1.6-1.4L123.2,19.9z M118.9,11c-0.9,0-1.7,0.4-2.3,1.1c-0.6,0.8-1,1.8-1.2,3.1l5.6-0.2
	c0.1-0.2,0.1-0.6,0.1-1.2c0-1-0.2-1.8-0.6-2.2C120.2,11.2,119.6,11,118.9,11z M131.8,10.6c0.4,0,0.7,0.1,1,0.4
	c0.3,0.3,0.4,0.6,0.4,0.9c0,0.3-0.1,0.6-0.3,0.8c-0.2,0.2-0.5,0.3-0.8,0.3c-0.2,0-0.4,0-0.5-0.1c-0.1-0.1-0.2-0.2-0.4-0.4
	c-0.1-0.2-0.3-0.3-0.4-0.3c-0.1-0.1-0.2-0.1-0.4-0.1c-0.3,0-0.6,0.2-1,0.6c-0.3,0.4-0.5,0.8-0.7,1.3v8.8l2.3,0.2v0.2h-6V23l1.8-0.2
	V12.6l-1.7-0.6v-0.2l3.3-1.1h0.2v2.6C129.9,11.5,130.9,10.6,131.8,10.6z"/>
</svg>
