<svg width="58" height="48" viewBox="0 0 58 48" fill="none" xmlns="http://www.w3.org/2000/svg">
<g clip-path="url(#clip0_374_19)">
<path fill-rule="evenodd" clip-rule="evenodd" d="M57.6375 31.56L53.1667 31.92C52.8042 34.2 52.4417 36 51.9583 37.44C51.475 38.88 50.9917 39.96 50.2667 40.68C49.5417 41.4 48.575 41.88 47.3667 42.24C46.1583 42.48 44.5875 42.6 42.6542 42.6C41.0833 42.6 39.875 42.48 39.15 42.24C38.3042 42 37.7 41.52 37.4583 40.8C37.2167 40.08 37.0958 39 37.0958 37.56C37.0958 35.04 37.0958 32.16 37.2167 29.04C37.3375 25.92 37.4583 22.68 37.4583 19.44C37.5792 16.2 37.8208 13.08 37.9417 10.32C38.0625 8.87999 38.1833 7.79999 38.425 6.95999C38.6667 6.11999 39.0292 5.51999 39.6333 5.15999C39.875 5.03999 40.1167 4.91999 40.3583 4.79999C40.6 4.67999 40.8417 4.67999 41.0833 4.55999C41.2042 4.55999 41.4458 4.43999 41.5667 4.43999C42.05 4.31999 42.5333 4.31999 43.1375 4.19999L43.5 0.23999L42.5333 0.35999C41.9292 0.35999 41.0833 0.47999 40.1167 0.47999C39.15 0.47999 38.1833 0.59999 37.0958 0.71999C36.975 0.71999 36.8542 0.71999 36.7333 0.71999C36.3708 0.71999 35.8875 0.71999 35.525 0.71999C35.1625 0.71999 34.6792 0.71999 34.3167 0.71999H30.9333C30.2083 0.71999 29.3625 0.71999 28.7583 0.59999H26.5833C25.4958 0.59999 24.5292 0.47999 23.8042 0.47999L22.5958 0.35999C17.6417 0.35999 13.775 1.43999 11.1167 3.47999C8.45834 5.63999 7.00834 8.51999 7.00834 12.24C7.00834 15.12 7.85417 17.64 9.66667 20.04C11.3583 22.44 13.8958 24.36 17.1583 25.92L9.90834 37.44C8.45834 39.6 7.12917 41.28 5.92084 42.24C4.59167 43.2 3.02084 43.68 1.32917 43.68L0.966675 44.16L1.45001 47.16L8.70001 48C10.0292 48 11.3583 47.4 12.8083 46.2C14.1375 45 15.4667 43.32 16.5542 41.28L23.5625 27.84H29.2417L29.3625 37.44C29.3625 39.12 29.2417 40.32 29.1208 41.16C28.8792 42 28.3958 42.48 27.6708 42.72C26.9458 42.96 25.7375 43.08 24.1667 43.2L24.0458 43.44L24.65 47.16V47.64L26.1 47.4C27.0667 47.28 28.3958 47.16 30.0875 47.04C30.5708 47.04 31.0542 47.04 31.6583 46.92H33.2292C34.5583 46.92 35.8875 46.92 37.3375 46.92C38.3042 46.92 39.15 47.04 39.9958 47.04C40.2375 47.04 40.4792 47.04 40.7208 47.04C40.8417 47.04 40.9625 47.04 40.9625 47.04C41.2042 47.04 41.5667 47.04 41.8083 47.04H41.9292C41.9292 47.04 41.9292 47.04 42.05 47.04H42.1708C42.2917 47.04 42.4125 47.04 42.4125 47.04C44.3458 47.16 46.2792 47.16 48.0917 47.28C50.1458 47.4 51.8375 47.4 53.1667 47.52L55.2208 47.64L55.7042 47.04C55.9458 44.4 56.3083 42 56.55 39.72C56.7917 37.44 57.1542 35.64 57.3958 34.2L57.7583 32.16L57.6375 31.56ZM21.9917 23.52C21.8708 23.4 21.3875 23.16 20.6625 22.92C19.9375 22.56 19.0917 22.08 18.2458 21.36C17.2792 20.64 16.5542 19.68 15.95 18.36C15.225 17.16 14.9833 15.48 14.9833 13.56C14.9833 10.68 15.95 8.39999 18.0042 6.95999C19.9375 5.51999 22.9583 4.79999 27.0667 4.79999C27.55 4.79999 27.9125 4.91999 28.0333 5.15999C28.1542 5.39999 28.275 5.75999 28.275 6.47999C28.5167 9.83999 28.6375 12.84 28.7583 15.36C29 17.88 29 20.4 29.1208 22.8L21.9917 23.52Z" fill="white"/>
</g>
<defs>
<clipPath id="clip0_374_19">
<rect width="58" height="48" fill="white"/>
</clipPath>
</defs>
</svg>
