<?xml version="1.0" encoding="utf-8"?>
<!-- Generator: Adobe Illustrator 27.2.0, SVG Export Plug-In . SVG Version: 6.00 Build 0)  -->
<svg version="1.1" id="Layer_1" xmlns="http://www.w3.org/2000/svg" xmlns:xlink="http://www.w3.org/1999/xlink" x="0px" y="0px"
	 viewBox="0 0 48 40" style="enable-background:new 0 0 48 40;" xml:space="preserve">
<style type="text/css">
	.st0{fill-rule:evenodd;clip-rule:evenodd;fill:#474747;}
</style>
<path class="st0" d="M47.7,26.3L44,26.6c-0.3,1.9-0.6,3.4-1,4.6c-0.4,1.2-0.8,2.1-1.4,2.7c-0.6,0.6-1.4,1-2.4,1.3
	c-1,0.2-2.3,0.3-3.9,0.3c-1.3,0-2.3-0.1-2.9-0.3C31.7,35,31.2,34.6,31,34c-0.2-0.6-0.3-1.5-0.3-2.7c0-2.1,0-4.5,0.1-7.1
	c0.1-2.6,0.2-5.3,0.2-8c0.1-2.7,0.3-5.3,0.4-7.6c0.1-1.2,0.2-2.1,0.4-2.8s0.5-1.2,1-1.5c0.2-0.1,0.4-0.2,0.6-0.3
	c0.2-0.1,0.4-0.1,0.6-0.2c0.1,0,0.3-0.1,0.4-0.1l0,0c0.4-0.1,0.8-0.1,1.3-0.2L36,0.2l-0.8,0.1c-0.5,0-1.2,0.1-2,0.1
	c-0.8,0-1.6,0.1-2.5,0.2c-0.1,0-0.2,0-0.3,0c-0.3,0-0.7,0-1,0c-0.3,0-0.7,0-1,0h-2.8c-0.6,0-1.3,0-1.8-0.1L22,0.5
	c-0.9,0-1.7-0.1-2.3-0.1l-1-0.1c-4.1,0-7.3,0.9-9.5,2.6C7,4.7,5.8,7.1,5.8,10.2c0,2.4,0.7,4.5,2.2,6.5c1.4,2,3.5,3.6,6.2,4.9l-6,9.6
	c-1.2,1.8-2.3,3.2-3.3,4c-1.1,0.8-2.4,1.2-3.8,1.2l-0.3,0.4l0.4,2.5L7.2,40c1.1,0,2.2-0.5,3.4-1.5c1.1-1,2.2-2.4,3.1-4.1l5.8-11.2
	h4.7l0.1,8c0,1.4-0.1,2.4-0.2,3.1c-0.2,0.7-0.6,1.1-1.2,1.3c-0.6,0.2-1.6,0.3-2.9,0.4l-0.1,0.2l0.5,3.1l0,0l0,0.4l1.2-0.2
	c0.8-0.1,1.9-0.2,3.3-0.3c0.4,0,0.8,0,1.3-0.1h1.3c1.1,0,2.2,0,3.4,0c0.8,0,1.5,0.1,2.2,0.1c0.2,0,0.4,0,0.6,0c0.1,0,0.2,0,0.2,0
	c0.2,0,0.5,0,0.7,0c0,0,0.1,0,0.1,0c0,0,0,0,0.1,0c0,0,0,0,0,0c0,0,0.1,0,0.1,0c0.1,0,0.2,0,0.2,0c1.6,0.1,3.2,0.1,4.7,0.2
	c1.7,0.1,3.1,0.1,4.2,0.2l1.7,0.1l0.4-0.5c0.2-2.2,0.5-4.2,0.7-6.1c0.2-1.9,0.5-3.4,0.7-4.6l0.3-1.7L47.7,26.3z M18.2,19.6
	c-0.1-0.1-0.5-0.3-1.1-0.5c-0.6-0.3-1.3-0.7-2-1.3c-0.8-0.6-1.4-1.4-1.9-2.5c-0.6-1-0.8-2.4-0.8-4c0-2.4,0.8-4.3,2.5-5.5
	C16.5,4.6,19,4,22.4,4c0.4,0,0.7,0.1,0.8,0.3c0.1,0.2,0.2,0.5,0.2,1.1c0.2,2.8,0.3,5.3,0.4,7.4C24,14.9,24,17,24.1,19L18.2,19.6z"/>
</svg>
